<?xml version="1.0" encoding="UTF-8"?>
<!DOCTYPE svg PUBLIC "-//W3C//DTD SVG 1.1//EN" "http://www.w3.org/Graphics/SVG/1.1/DTD/svg11.dtd">
<!-- Creator: CorelDRAW X7 -->
<svg xmlns="http://www.w3.org/2000/svg" xml:space="preserve" width="420mm" height="594mm" version="1.1" style="shape-rendering:geometricPrecision; text-rendering:geometricPrecision; image-rendering:optimizeQuality; fill-rule:evenodd; clip-rule:evenodd"
viewBox="0 0 42000 59400"
 xmlns:xlink="http://www.w3.org/1999/xlink">
 <defs>
  <style type="text/css">
   <![CDATA[
    .fil26 {fill:#FFE6B2}
    .fil0 {fill:#FFCE2A}
    .fil20 {fill:#FBE5A0}
    .fil23 {fill:#D59F42}
    .fil35 {fill:#CCA66E}
    .fil24 {fill:#C88560}
    .fil22 {fill:#C9A56F}
    .fil21 {fill:#A45C50}
    .fil28 {fill:#7C655C}
    .fil25 {fill:#4C443D}
    .fil29 {fill:#4D5A63}
    .fil5 {fill:#FFCE2A;fill-rule:nonzero}
    .fil30 {fill:#ED3237;fill-rule:nonzero}
    .fil32 {fill:#FBF9D2;fill-rule:nonzero}
    .fil27 {fill:#E8E0B9;fill-rule:nonzero}
    .fil37 {fill:#E5DFB7;fill-rule:nonzero}
    .fil19 {fill:#D4D4D4;fill-rule:nonzero}
    .fil36 {fill:#CCA66E;fill-rule:nonzero}
    .fil14 {fill:#CECDCC;fill-rule:nonzero}
    .fil1 {fill:#CCCBCB;fill-rule:nonzero}
    .fil33 {fill:#A0C1CD;fill-rule:nonzero}
    .fil10 {fill:#868687;fill-rule:nonzero}
    .fil9 {fill:#7F8183;fill-rule:nonzero}
    .fil31 {fill:#7B92A8;fill-rule:nonzero}
    .fil13 {fill:#767779;fill-rule:nonzero}
    .fil16 {fill:#5C5C5B;fill-rule:nonzero}
    .fil12 {fill:#464547;fill-rule:nonzero}
    .fil18 {fill:#48474B;fill-rule:nonzero}
    .fil3 {fill:#363435;fill-rule:nonzero}
    .fil34 {fill:#4D5A63;fill-rule:nonzero}
    .fil17 {fill:#3F4041;fill-rule:nonzero}
    .fil15 {fill:#373638;fill-rule:nonzero}
    .fil11 {fill:#2F2F30;fill-rule:nonzero}
    .fil2 {fill:url(#id0)}
    .fil6 {fill:url(#id1)}
    .fil7 {fill:url(#id2)}
    .fil4 {fill:url(#id3)}
    .fil8 {fill:url(#id4)}
   ]]>
  </style>
  <linearGradient id="id0" gradientUnits="userSpaceOnUse" x1="21525" y1="11618.5" x2="19261.7" y2="7698.45">
   <stop offset="0" style="stop-opacity:1; stop-color:#393939"/>
   <stop offset="0.101961" style="stop-opacity:1; stop-color:#393939"/>
   <stop offset="0.501961" style="stop-opacity:1; stop-color:#585959"/>
   <stop offset="0.788235" style="stop-opacity:1; stop-color:#373636"/>
   <stop offset="1" style="stop-opacity:1; stop-color:#363435"/>
  </linearGradient>
  <linearGradient id="id1" gradientUnits="userSpaceOnUse" x1="21525" y1="11618.5" x2="19261.7" y2="7698.45">
   <stop offset="0" style="stop-opacity:1; stop-color:#373636"/>
   <stop offset="0.101961" style="stop-opacity:1; stop-color:#373636"/>
   <stop offset="0.501961" style="stop-opacity:1; stop-color:#434242"/>
   <stop offset="0.788235" style="stop-opacity:1; stop-color:#373536"/>
   <stop offset="1" style="stop-opacity:1; stop-color:#363435"/>
  </linearGradient>
  <linearGradient id="id2" gradientUnits="userSpaceOnUse" xlink:href="#id1" x1="21525" y1="11618.5" x2="19261.7" y2="7698.44">
  </linearGradient>
  <linearGradient id="id3" gradientUnits="userSpaceOnUse" x1="21525" y1="11618.5" x2="19261.7" y2="7698.45">
   <stop offset="0" style="stop-opacity:1; stop-color:#2F2F2F"/>
   <stop offset="0.101961" style="stop-opacity:1; stop-color:#2F2F2F"/>
   <stop offset="0.501961" style="stop-opacity:1; stop-color:#3A3A3A"/>
   <stop offset="0.788235" style="stop-opacity:1; stop-color:#2F2F2F"/>
   <stop offset="1" style="stop-opacity:1; stop-color:#2E2E2E"/>
  </linearGradient>
  <linearGradient id="id4" gradientUnits="userSpaceOnUse" xlink:href="#id1" x1="21525" y1="11618.5" x2="19261.7" y2="7698.45">
  </linearGradient>
 </defs>
 <g id="Camada_x0020_1">
  <metadata id="CorelCorpID_0Corel-Layer"/>
  <g id="_969527752816">
   <rect class="fil0" x="13500" y="3775" width="15000" height="11250"/>
   <g>
    <path class="fil1" d="M22764 9652c0,1316 -1066,2383 -2382,2383 -1315,0 -2382,-1067 -2382,-2383 0,-1315 1067,-2382 2382,-2382 1316,0 2382,1067 2382,2382z"/>
    <path class="fil2" d="M20393 11893c-1232,0 -2234,-1002 -2234,-2235 0,-1232 1002,-2234 2234,-2234 1232,0 2235,1002 2235,2234 0,1233 -1003,2235 -2235,2235zm0 -4213c-1090,0 -1978,888 -1978,1978 0,1091 888,1979 1978,1979 1091,0 1979,-888 1979,-1979 0,-1090 -888,-1978 -1979,-1978zm0 3928c-1075,0 -1949,-875 -1949,-1950 0,-1074 874,-1949 1949,-1949 1075,0 1950,875 1950,1949 0,1075 -875,1950 -1950,1950zm0 -3591c-905,0 -1641,737 -1641,1641 0,905 736,1642 1641,1642 905,0 1642,-737 1642,-1642 0,-904 -737,-1641 -1642,-1641zm0 3259c-891,0 -1617,-726 -1617,-1618 0,-891 726,-1617 1617,-1617 892,0 1617,726 1617,1617 0,892 -725,1618 -1617,1618zm0 -2906c-710,0 -1288,578 -1288,1288 0,711 578,1289 1288,1289 711,0 1288,-578 1288,-1289 0,-710 -577,-1288 -1288,-1288zm0 2553c-697,0 -1264,-567 -1264,-1265 0,-697 567,-1264 1264,-1264 698,0 1265,567 1265,1264 0,698 -567,1265 -1265,1265zm0 -2281c-561,0 -1016,455 -1016,1016 0,562 455,1017 1016,1017 561,0 1016,-455 1016,-1017 0,-561 -455,-1016 -1016,-1016z"/>
    <path class="fil3" d="M20393 7424c-1232,0 -2234,1002 -2234,2234 0,1233 1002,2235 2234,2235 1232,0 2235,-1002 2235,-2235 0,-1232 -1003,-2234 -2235,-2234zm0 4526c-1263,0 -2291,-1028 -2291,-2292 0,-1263 1028,-2291 2291,-2291 1264,0 2292,1028 2292,2291 0,1264 -1028,2292 -2292,2292z"/>
    <path class="fil4" d="M20393 10675c-561,0 -1016,-455 -1016,-1017 0,-561 455,-1016 1016,-1016 561,0 1016,455 1016,1016 0,562 -455,1017 -1016,1017z"/>
    <path class="fil5" d="M21216 9658c0,455 -368,823 -823,823 -454,0 -823,-368 -823,-823 0,-454 369,-822 823,-822 455,0 823,368 823,822z"/>
    <path class="fil6" d="M20393 11300c-905,0 -1641,-737 -1641,-1642 0,-904 736,-1641 1641,-1641 905,0 1642,737 1642,1641 0,905 -737,1642 -1642,1642zm0 -3259c-891,0 -1617,726 -1617,1617 0,892 726,1618 1617,1618 892,0 1617,-726 1617,-1618 0,-891 -725,-1617 -1617,-1617z"/>
    <path class="fil7" d="M20393 10947c-710,0 -1288,-578 -1288,-1289 0,-710 578,-1288 1288,-1288 711,0 1288,578 1288,1288 0,711 -577,1289 -1288,1289zm0 -2553c-697,0 -1264,567 -1264,1264 0,698 567,1265 1264,1265 698,0 1265,-567 1265,-1265 0,-697 -567,-1264 -1265,-1264z"/>
    <path class="fil8" d="M20393 11637c-1090,0 -1978,-888 -1978,-1979 0,-1090 888,-1978 1978,-1978 1091,0 1979,888 1979,1978 0,1091 -888,1979 -1979,1979zm0 -3928c-1075,0 -1949,875 -1949,1949 0,1075 874,1950 1949,1950 1075,0 1950,-875 1950,-1950 0,-1074 -875,-1949 -1950,-1949z"/>
    <path class="fil9" d="M20766 9658c0,206 -167,373 -373,373 -205,0 -372,-167 -372,-373 0,-205 167,-372 372,-372 206,0 373,167 373,372z"/>
    <path class="fil10" d="M23935 8027c-168,375 -607,542 -982,374 -374,-168 -541,-607 -373,-981 167,-374 607,-542 981,-374 374,168 542,607 374,981z"/>
    <path class="fil11" d="M22181 10630c-19,-8 -36,-23 -47,-44 -26,-48 -8,-109 41,-135 188,-102 720,-458 692,-745 -41,-414 -99,-1050 -99,-1056 -2,-18 1,-35 8,-50l126 -281c22,-51 82,-73 132,-51 50,23 73,82 50,133l-115 256c12,125 61,664 97,1030 46,471 -710,893 -796,940 -28,15 -61,15 -89,3z"/>
    <path class="fil12" d="M23892 8008c-157,351 -569,508 -920,351 -350,-157 -507,-569 -350,-920 157,-351 569,-508 920,-351 351,158 508,570 350,920z"/>
    <polygon class="fil13" points="23189,8179 22998,8093 23355,7297 23546,7383 "/>
    <polygon class="fil14" points="23068,8449 22877,8364 23003,8082 23194,8168 "/>
    <path class="fil1" d="M23532 7838c-67,150 -243,217 -393,150 -150,-67 -217,-243 -150,-393 67,-150 243,-217 393,-150 150,67 217,243 150,393z"/>
    <path class="fil15" d="M23476 7813c-54,119 -193,172 -312,119 -119,-53 -172,-193 -119,-312 53,-119 193,-172 312,-119 119,54 172,193 119,312z"/>
    <path class="fil10" d="M23408 7783c-37,81 -132,117 -214,81 -81,-37 -117,-132 -81,-214 37,-81 132,-117 213,-81 82,37 118,132 82,214z"/>
    <polygon class="fil16" points="23546,7383 23657,7362 23685,7299 23326,7137 23298,7198 23354,7297 "/>
    <polygon class="fil1" points="23676,7317 23317,7156 23492,6765 23852,6926 "/>
    <path class="fil17" d="M23790 7977c-29,64 -104,92 -168,63 -64,-28 -92,-103 -64,-167 29,-64 104,-93 168,-64 64,29 93,104 64,168z"/>
    <path class="fil13" d="M23746 7957c-18,39 -64,57 -104,39 -39,-17 -57,-64 -39,-104 17,-39 64,-57 103,-39 40,18 58,64 40,104z"/>
    <polygon class="fil18" points="22096,10730 21995,10566 22164,10461 22266,10625 "/>
    <polygon class="fil11" points="21635,11059 21494,10832 22031,10500 22172,10727 "/>
    <polygon class="fil19" points="22256,10642 22145,10464 22173,10447 22283,10625 "/>
    <polygon class="fil19" points="21665,10850 21636,10803 21767,10722 21796,10769 "/>
    <polygon class="fil19" points="21723,10945 21694,10898 21826,10817 21854,10863 "/>
   </g>
  </g>
  <g id="_969527240480">
   <rect class="fil20" x="13500" y="43775" width="15000" height="11250"/>
   <g>
    <path class="fil21" d="M23344 47348c64,-64 150,-128 296,-124 259,-320 663,-641 860,-780 -190,-102 -142,-309 -259,-290 20,-117 -188,-68 -289,-258 -140,197 -460,601 -781,860 5,146 -59,232 -124,296l0 311 297 -15z"/>
    <path class="fil21" d="M23596 46137l51 52c17,5 42,-6 64,-24l291 291 44 -43 -292 -292c14,-21 23,-42 18,-57l-51 -52c-63,-31 -156,62 -125,125z"/>
    <path class="fil21" d="M23546 46328c15,-20 23,-41 19,-57l-52 -51c-62,-31 -156,62 -125,125l52 51c17,5 41,-6 64,-23l290 291 44 -44 -292 -292z"/>
    <path class="fil21" d="M23630 46828l-291 -292c14,-21 23,-42 18,-57l-51 -52c-63,-30 -157,62 -125,125l51 52c17,5 41,-6 64,-23l291 290 43 -43z"/>
    <path class="fil21" d="M24198 46739l51 52c63,31 156,-63 125,-125l-51 -52c-15,-4 -37,4 -57,19l-272 -272 -44 43 271 271c-17,23 -28,47 -23,64z"/>
    <path class="fil21" d="M24167 46873l-51 -51c-16,-5 -37,4 -58,18l-272 -272 -44 44 272 271c-18,23 -28,47 -24,64l52 51c63,32 156,-62 125,-125z"/>
    <path class="fil21" d="M23959 47081l-51 -52c-15,-4 -37,4 -57,19l-273 -272 -43 43 271 271c-17,23 -28,47 -23,65l51 51c63,31 156,-63 125,-125z"/>
    <path class="fil22" d="M23845 46345c25,25 65,25 90,0 24,-24 24,-64 0,-89 -25,-25 -65,-25 -90,0 -24,25 -24,65 0,89z"/>
    <path class="fil22" d="M23638 46553c24,25 65,25 89,0 25,-25 25,-65 0,-90 -24,-24 -65,-24 -89,0 -25,25 -25,65 0,90z"/>
    <path class="fil22" d="M23430 46761c25,24 65,24 90,0 24,-25 24,-65 0,-90 -25,-25 -65,-25 -90,0 -25,25 -25,65 0,90z"/>
    <path class="fil22" d="M24050 46550c25,25 65,25 90,0 25,-24 25,-64 0,-89 -25,-25 -65,-25 -90,0 -24,25 -24,65 0,89z"/>
    <path class="fil22" d="M23843 46758c24,25 65,25 89,0 25,-25 25,-65 0,-90 -24,-24 -65,-24 -89,0 -25,25 -25,65 0,90z"/>
    <path class="fil22" d="M23635 46966c25,24 65,24 90,0 24,-25 24,-65 0,-90 -25,-25 -65,-25 -90,0 -24,25 -24,65 0,90z"/>
    <polygon class="fil23" points="20206,49848 23062,47038 23359,47335 20549,50191 "/>
    <path class="fil24" d="M18181 52237c-696,-697 -949,-1479 -327,-2101 622,-622 1282,-448 1482,-648 201,-200 378,-737 829,-913 451,-176 1016,356 1158,499 143,142 675,707 499,1158 -177,451 -713,628 -913,828 -200,201 -26,861 -648,1483 -622,622 -1383,390 -2080,-306z"/>
    <path class="fil20" d="M19871 50526c228,228 601,228 829,0 229,-228 229,-601 0,-829 -228,-229 -601,-229 -829,0 -228,228 -228,601 0,829z"/>
    <path class="fil25" d="M19961 50436c179,178 470,178 649,0 179,-179 179,-471 0,-649 -179,-179 -470,-179 -649,0 -178,178 -178,470 0,649z"/>
    <polygon class="fil21" points="20339,49717 20680,50058 23345,47347 23050,47052 "/>
    <polygon class="fil26" points="22936,47164 23233,47461 23220,47473 22923,47177 "/>
    <polygon class="fil26" points="22738,47359 23038,47659 23025,47672 22725,47372 "/>
    <polygon class="fil26" points="22548,47546 22851,47849 22839,47862 22535,47558 "/>
    <polygon class="fil26" points="22377,47713 22684,48019 22671,48032 22365,47726 "/>
    <polygon class="fil26" points="22207,47881 22516,48190 22503,48203 22194,47893 "/>
    <polygon class="fil26" points="22047,48038 22359,48350 22346,48363 22034,48051 "/>
    <polygon class="fil26" points="21891,48191 22206,48506 22193,48519 21878,48204 "/>
    <polygon class="fil26" points="21748,48331 22066,48649 22053,48661 21735,48344 "/>
    <polygon class="fil26" points="21608,48470 21927,48789 21915,48802 21595,48482 "/>
    <polygon class="fil26" points="21475,48600 21797,48922 21785,48934 21462,48612 "/>
    <polygon class="fil26" points="21349,48723 21674,49047 21661,49060 21337,48736 "/>
    <polygon class="fil26" points="21232,48839 21558,49165 21546,49178 21219,48851 "/>
    <polygon class="fil26" points="21126,48943 21454,49271 21441,49284 21113,48956 "/>
    <polygon class="fil26" points="21010,49056 21340,49387 21328,49399 20998,49069 "/>
    <polygon class="fil26" points="20919,49147 21250,49478 21238,49491 20906,49159 "/>
    <polygon class="fil26" points="20823,49241 21156,49574 21143,49587 20810,49253 "/>
    <polygon class="fil26" points="20729,49333 21064,49668 21051,49681 20716,49346 "/>
    <polygon class="fil26" points="20652,49409 20988,49745 20976,49758 20639,49421 "/>
    <polygon class="fil26" points="20571,49488 20909,49826 20896,49839 20558,49501 "/>
    <polygon class="fil26" points="20492,49566 20831,49905 20819,49918 20479,49578 "/>
    <polygon class="fil26" points="20415,49641 20756,49982 20743,49994 20402,49654 "/>
    <polygon class="fil26" points="23062,47038 23359,47335 23346,47347 23050,47051 "/>
    <path class="fil27" d="M19294 51373l4416 -4416 -10 -11 -4417 4417 11 10zm-52 -52l4052 -4051 596 -548 -10 -11 -596 548 -4053 4052 11 10zm-52 -52l4052 -4051 855 -704 -9 -11 -856 704 -4053 4052 11 10zm-52 -51l4053 -4052 705 -861 -12 -9 -704 860 -4052 4051 10 11zm-52 -52l4053 -4052 546 -598 -11 -10 -546 598 -4052 4051 10 11zm-52 -52l4053 -4052 357 -333 -10 -11 -358 334 -4052 4052 10 10z"/>
    <path class="fil20" d="M18914 50820l661 662c190,189 5,175 91,296l-41 41c-20,20 -50,22 -68,5l-984 -984c-17,-18 -15,-48 5,-68l41 -41c120,86 107,-99 295,89z"/>
    <path class="fil28" d="M19007 51131c12,12 32,12 44,0 12,-12 12,-32 0,-44 -12,-12 -32,-12 -44,0 -12,12 -12,32 0,44z"/>
    <path class="fil28" d="M19059 51182c12,12 32,12 44,0 12,-12 12,-31 0,-43 -12,-12 -32,-12 -44,0 -12,12 -12,31 0,43z"/>
    <path class="fil28" d="M19111 51234c12,12 32,12 44,0 12,-12 12,-31 0,-43 -12,-12 -32,-12 -44,0 -12,12 -12,31 0,43z"/>
    <path class="fil28" d="M19163 51286c12,12 31,12 43,0 12,-12 12,-32 0,-44 -12,-12 -31,-12 -43,0 -12,12 -12,32 0,44z"/>
    <path class="fil28" d="M19215 51338c12,12 31,12 43,0 12,-12 12,-32 0,-44 -12,-12 -31,-12 -43,0 -13,12 -13,32 0,44z"/>
    <path class="fil28" d="M19266 51390c12,12 32,12 44,0 12,-12 12,-32 0,-44 -12,-12 -32,-12 -44,0 -12,12 -12,32 0,44z"/>
   </g>
  </g>
  <g id="_969527222368">
   <rect class="fil29" x="13500" y="24075" width="15000" height="11250"/>
   <g>
    <path class="fil30" d="M20693 29533c0,0 -253,-324 -601,-330 -348,-6 -595,383 -642,642 -47,259 -254,371 -425,342 -170,-30 -836,0 -1255,512 -418,513 -353,1226 212,1851 566,625 1273,931 1951,371 0,0 530,-353 554,-1273 0,0 -71,-306 236,-389 306,-82 483,-200 613,-377 129,-177 -148,-206 -148,-206 0,0 -430,29 -359,-454 70,-483 -136,-689 -136,-689z"/>
    <path class="fil31" d="M20029 32468c-50,50 -131,50 -181,0 -50,-50 -50,-131 0,-181 50,-50 131,-50 181,0 51,50 51,131 0,181z"/>
    <path class="fil32" d="M19990 32428c-28,28 -74,28 -102,0 -28,-28 -28,-73 0,-101 28,-28 74,-28 102,0 28,28 28,73 0,101z"/>
    <path class="fil31" d="M19497 32364c-50,50 -131,50 -181,0 -50,-50 -50,-131 0,-181 50,-50 131,-50 181,0 50,50 50,131 0,181z"/>
    <path class="fil32" d="M19457 32324c-28,29 -73,29 -102,0 -28,-28 -28,-73 0,-101 29,-28 74,-28 102,0 28,28 28,73 0,101z"/>
    <path class="fil31" d="M19134 32700c-50,50 -131,50 -181,0 -50,-50 -50,-131 0,-181 50,-50 131,-50 181,0 51,50 51,131 0,181z"/>
    <path class="fil32" d="M19095 32660c-28,28 -74,28 -102,0 -28,-28 -28,-73 0,-101 28,-28 74,-28 102,0 28,28 28,73 0,101z"/>
    <path class="fil31" d="M19656 32859c-50,50 -131,50 -181,0 -50,-50 -50,-131 0,-181 50,-50 131,-50 181,0 50,50 50,131 0,181z"/>
    <path class="fil32" d="M19616 32819c-28,29 -73,29 -101,0 -28,-28 -28,-73 0,-101 28,-28 73,-28 101,0 28,28 28,73 0,101z"/>
    <path class="fil33" d="M20329 30916l-616 -616c-5,-5 -5,-15 0,-20l311 -311c6,-6 15,-6 21,0l616 616c6,5 6,15 0,20l-311 311c-6,6 -15,6 -21,0z"/>
    <path class="fil34" d="M20268 30784l-416 -416c-11,-11 -11,-30 0,-41l211 -211c11,-11 30,-11 41,0l416 416c11,11 11,30 0,41l-211 211c-11,11 -30,11 -41,0z"/>
    <path class="fil33" d="M19658 31561l-593 -592c-5,-6 -5,-15 0,-20l285 -285c5,-6 15,-6 20,0l593 592c5,6 5,15 0,21l-285 284c-6,6 -15,6 -20,0z"/>
    <path class="fil34" d="M19611 31441l-406 -406c-11,-11 -11,-29 0,-41l189 -189c11,-11 30,-11 41,0l406 406c11,11 11,30 0,41l-189 189c-12,11 -30,11 -41,0z"/>
    <polygon class="fil32" points="18653,31547 19090,31984 19196,31878 18759,31441 "/>
    <path class="fil32" d="M19143 31931c30,-29 77,-29 106,0 30,29 30,77 0,106 -29,29 -76,29 -106,0 -29,-29 -29,-77 0,-106z"/>
    <path class="fil32" d="M18595 31383c30,-29 77,-29 106,0 30,29 30,77 0,106 -29,29 -76,29 -106,0 -29,-29 -29,-77 0,-106z"/>
    <path class="fil32" d="M20006 29504c-22,22 -57,22 -79,0 -21,-22 -21,-57 0,-79 22,-21 57,-21 79,0 21,22 21,57 0,79z"/>
    <polygon class="fil35" points="23848,26288 24170,26609 24127,26652 23805,26331 "/>
    <path class="fil35" d="M23778 26389l-51 -50c-31,-63 62,-154 123,-123l51 50c13,44 -79,136 -123,123z"/>
    <polygon class="fil35" points="23644,26492 23965,26813 23923,26856 23601,26535 "/>
    <path class="fil35" d="M23574 26593l-51 -50c-31,-62 62,-154 123,-123l51 50c12,44 -79,136 -123,123z"/>
    <polygon class="fil35" points="23440,26696 23761,27018 23718,27060 23397,26739 "/>
    <path class="fil35" d="M23370 26797l-51 -50c-31,-62 62,-153 123,-123l50 50c13,44 -78,136 -122,123z"/>
    <polygon class="fil35" points="24397,26836 24075,26515 24032,26558 24354,26879 "/>
    <path class="fil35" d="M24295 26907l51 50c62,31 153,-61 123,-123l-51 -50c-44,-13 -135,79 -123,123z"/>
    <polygon class="fil35" points="24193,27041 23871,26719 23828,26762 24150,27083 "/>
    <path class="fil35" d="M24091 27111l51 50c62,31 153,-61 123,-123l-51 -50c-44,-13 -136,79 -123,123z"/>
    <polygon class="fil35" points="23988,27245 23667,26923 23624,26966 23946,27288 "/>
    <path class="fil35" d="M23887 27315l51 50c62,31 153,-61 123,-123l-51 -50c-44,-13 -136,79 -123,123z"/>
    <path class="fil36" d="M20575 30499l2945 -3039c0,0 102,-114 237,-49l743 -742c0,0 -116,-96 -119,-164 -2,-69 -88,-107 -88,-107 0,0 -18,-61 -84,-75 -66,-13 -107,-52 -107,-52l-85 -86 -743 743c65,135 -66,219 -66,219l-3057 2928 424 424z"/>
    <path class="fil32" d="M23970 26504c-20,19 -52,19 -71,0 -20,-20 -20,-51 0,-71 19,-20 51,-20 71,0 19,20 19,51 0,71z"/>
    <path class="fil32" d="M23784 26681c-20,19 -51,19 -71,0 -19,-20 -19,-52 0,-71 20,-20 51,-20 71,0 20,19 20,51 0,71z"/>
    <path class="fil32" d="M23598 26875c-19,20 -51,20 -70,0 -20,-20 -20,-51 0,-71 19,-19 51,-19 70,0 20,20 20,51 0,71z"/>
    <path class="fil32" d="M24270 26804c-19,20 -51,20 -71,0 -19,-19 -19,-51 0,-70 20,-20 52,-20 71,0 20,19 20,51 0,70z"/>
    <path class="fil32" d="M24085 26981c-20,20 -52,20 -71,0 -20,-19 -20,-51 0,-71 19,-19 51,-19 71,0 19,20 19,52 0,71z"/>
    <path class="fil32" d="M23899 27176c-20,19 -51,19 -71,0 -19,-20 -19,-52 0,-71 20,-20 51,-20 71,0 19,19 19,51 0,71z"/>
    <path class="fil37" d="M19152 31838c0,0 11,-11 32,-32 311,-318 2837,-2902 4031,-4096 177,-177 325,-323 432,-427 53,-52 97,-94 128,-123 16,-15 29,-26 38,-34 5,-5 9,-8 12,-10 3,-3 6,-4 7,-5l-7 -13c-3,2 -5,4 -9,6 -13,10 -36,31 -70,63 -101,95 -292,284 -541,533 -1274,1274 -4063,4128 -4063,4128l10 10z"/>
    <path class="fil37" d="M19088 31770c0,0 18,-18 51,-52 230,-235 1219,-1239 2256,-2276 563,-563 1141,-1136 1619,-1601 478,-464 857,-820 1023,-949l-9 -12c-167,131 -546,487 -1024,951 -479,465 -1056,1037 -1619,1601 -1185,1185 -2307,2327 -2307,2327l10 11z"/>
    <path class="fil37" d="M18790 31476c0,0 4138,-3946 4735,-4543 33,-33 55,-56 65,-67l-11 -10c-10,11 -32,34 -65,67 -298,298 -1481,1434 -2591,2495 -1109,1061 -2143,2047 -2143,2047l10 11z"/>
    <path class="fil37" d="M18858 31540c0,0 2713,-2576 4115,-3977 242,-242 445,-450 588,-603 72,-76 128,-139 167,-186 20,-23 35,-42 46,-58 5,-7 9,-14 12,-20 3,-5 5,-10 5,-15l-14 -1c0,1 -1,5 -4,10 -9,18 -37,54 -79,103 -128,147 -391,419 -732,760 -700,700 -1729,1694 -2582,2514 -427,409 -810,775 -1086,1038 -138,132 -250,238 -327,311 -77,73 -119,113 -119,113l10 11z"/>
    <path class="fil37" d="M18925 31607c0,0 2115,-2014 3611,-3510 425,-425 800,-809 1063,-1092 131,-142 234,-259 302,-344 33,-42 58,-77 73,-103 7,-13 12,-23 15,-32 1,-5 2,-9 1,-13 0,-4 -2,-8 -5,-11 -4,-5 -10,-6 -16,-5l1 14c4,0 5,1 5,1l1 2c0,3 -1,10 -6,20 -7,17 -24,43 -48,76 -86,115 -266,316 -509,572 -243,256 -550,567 -887,905 -748,748 -1651,1625 -2367,2316 -358,345 -669,643 -890,855 -111,106 -200,191 -260,249 -31,29 -54,51 -70,66 -16,15 -24,23 -24,23l10 11z"/>
    <path class="fil37" d="M19001 31683c0,0 1,-1 3,-2 57,-57 1325,-1325 2595,-2563 635,-619 1270,-1230 1754,-1678 242,-225 447,-408 595,-532 73,-61 133,-108 176,-137 21,-15 39,-25 51,-30 6,-3 11,-4 14,-5l3 0 1 1 0 -1 0 1 0 0 0 -1 0 1 0 -1 0 0 0 1 0 -1 0 0 0 1 13 -6c-1,-2 -2,-3 -3,-5 -4,-4 -10,-5 -15,-4 -11,1 -24,7 -42,17 -67,40 -195,144 -369,297 -1220,1072 -4688,4539 -4784,4635 -1,1 -2,2 -2,2l10 10z"/>
    <polygon class="fil37" points="23242,27102 23567,27427 23577,27417 23252,27092 "/>
    <polygon class="fil37" points="23013,27322 23343,27652 23353,27642 23024,27312 "/>
    <polygon class="fil37" points="22800,27528 23126,27854 23136,27844 22810,27518 "/>
    <polygon class="fil37" points="22577,27743 22919,28085 22929,28075 22587,27733 "/>
    <polygon class="fil37" points="22382,27938 22720,28275 22730,28265 22392,27928 "/>
    <polygon class="fil37" points="22180,28126 22525,28470 22535,28460 22191,28116 "/>
    <polygon class="fil37" points="22007,28294 22359,28645 22369,28635 22017,28283 "/>
    <polygon class="fil37" points="21832,28469 22193,28830 22203,28820 21842,28459 "/>
    <polygon class="fil37" points="21671,28630 22039,28998 22049,28988 21681,28620 "/>
    <polygon class="fil37" points="21516,28767 21891,29142 21901,29131 21526,28757 "/>
    <polygon class="fil37" points="21363,28906 21747,29290 21757,29280 21373,28896 "/>
    <polygon class="fil37" points="21231,29037 21617,29424 21628,29413 21241,29027 "/>
    <polygon class="fil37" points="21095,29165 21488,29557 21498,29547 21106,29155 "/>
    <polygon class="fil37" points="20978,29282 21373,29676 21383,29666 20989,29272 "/>
    <polygon class="fil37" points="20857,29394 21258,29795 21268,29785 20868,29384 "/>
    <polygon class="fil37" points="20741,29511 21143,29913 21153,29903 20751,29501 "/>
    <polygon class="fil37" points="20633,29619 21037,30022 21047,30012 20644,29608 "/>
    <polygon class="fil37" points="20536,29716 20941,30121 20951,30111 20546,29706 "/>
    <polygon class="fil37" points="20438,29813 20849,30224 20859,30214 20449,29803 "/>
    <polygon class="fil37" points="20351,29901 20758,30308 20768,30298 20361,29891 "/>
    <polygon class="fil37" points="20281,29958 20694,30371 20705,30361 20292,29948 "/>
    <polygon class="fil37" points="20201,30024 20625,30448 20635,30438 20211,30014 "/>
   </g>
  </g>
 </g>
</svg>
