<?xml version="1.0" encoding="utf-8"?>
<!-- Generator: Adobe Illustrator 19.0.0, SVG Export Plug-In . SVG Version: 6.00 Build 0)  -->
<svg version="1.1" id="Capa_1" xmlns="http://www.w3.org/2000/svg" xmlns:xlink="http://www.w3.org/1999/xlink" x="0px" y="0px"
	 viewBox="-296 -18.1 18.1 18.1" style="enable-background:new -296 -18.1 18.1 18.1;" xml:space="preserve">
<style type="text/css">
	.st0{fill:#C0C0C0;}
</style>
<g>
	<path class="st0" d="M-279.7-18.1h-14.4c-1,0-1.9,0.8-1.9,1.9v14.4c0,1,0.8,1.9,1.9,1.9h14.4c1,0,1.9-0.8,1.9-1.9v-14.4
		C-277.9-17.3-278.7-18.1-279.7-18.1z M-285.6-15.1h0.9v2.8c0,0.5,0,0.5,0,0.6c0,0.1,0.1,0.2,0.3,0.2c0.2,0,0.3-0.2,0.3-0.3
		c0-0.1,0-0.1,0-0.6v-2.7h0.9v4.2h-0.9l0-0.2l-0.3-0.1c-0.1,0.1-0.1,0.2-0.2,0.3c-0.1,0.1-0.2,0.1-0.3,0.1c-0.2,0-0.3,0-0.4-0.1
		c-0.1-0.1-0.2-0.1-0.2-0.2c0-0.1-0.1-0.2-0.1-0.3c0-0.1,0-0.4,0-0.8V-15.1L-285.6-15.1z M-288.6-13.3c0-0.4,0-0.8,0.1-1
		c0.1-0.2,0.2-0.4,0.4-0.5c0.2-0.1,0.4-0.2,0.7-0.2c0.2,0,0.5,0,0.6,0.1c0.2,0.1,0.3,0.2,0.4,0.3c0.1,0.1,0.2,0.3,0.2,0.4
		c0,0.2,0.1,0.4,0.1,0.7v0.7c0,0.4,0,0.7,0,0.9c0,0.2-0.1,0.3-0.2,0.5c-0.1,0.2-0.2,0.3-0.4,0.3c-0.2,0.1-0.4,0.1-0.6,0.1
		c-0.2,0-0.5,0-0.6-0.1c-0.2-0.1-0.3-0.2-0.4-0.3c-0.1-0.1-0.1-0.3-0.2-0.5c0-0.2-0.1-0.5-0.1-0.9L-288.6-13.3z M-290.7-16.6
		l0.7,2.3c0.1-0.6,0.4-1.4,0.6-2.3h0.7l-0.8,3.3l0,0v2.3h-0.8v-2.3l0,0l-1-3.3H-290.7z M-280.3-3.6c-0.1,1-1,1.9-2.1,2
		c-3,0.1-6.1,0.1-9.1,0c-1-0.1-2-0.9-2.1-2c-0.1-1.6-0.1-3.3,0-4.9c0.1-1,1-1.9,2.1-2c3-0.1,6.1-0.1,9.1,0c1,0.1,2,0.9,2.1,2
		C-280.2-6.9-280.2-5.3-280.3-3.6z M-287.4-11.3c0.1,0,0.2-0.1,0.3-0.2c0-0.1,0-0.2,0-0.5v-1.8c0-0.4,0-0.5,0-0.6
		c0-0.1-0.1-0.2-0.3-0.2c-0.1,0-0.2,0.1-0.3,0.2c0,0.1,0,0.2,0,0.6v1.8c0,0.3,0,0.5,0,0.5C-287.6-11.4-287.5-11.3-287.4-11.3z
		 M-292.4-8.2h0.7h0.1v0.1v4.7h0.9v-4.7v-0.1h0.1h0.7v-0.9h-2.6V-8.2z M-288.1-5c0,0.5,0,0.6,0,0.7c0,0.1-0.1,0.2-0.3,0.2
		c-0.1,0-0.3-0.1-0.3-0.2c0-0.1,0-0.2,0-0.7v-2.8h-0.9v3c0,0.4,0,0.7,0,0.8c0,0.1,0,0.2,0.1,0.3c0,0.1,0.1,0.2,0.2,0.2
		c0.1,0.1,0.2,0.1,0.3,0.1c0.1,0,0.2,0,0.3-0.1c0.1-0.1,0.2-0.2,0.2-0.3l0.3,0.1l0,0.2h0.9v-4.4h-0.9L-288.1-5z M-284.3-7.5
		c0-0.1-0.1-0.2-0.2-0.2c-0.1-0.1-0.2-0.1-0.3-0.1c-0.1,0-0.2,0-0.3,0.1c-0.1,0.1-0.2,0.2-0.3,0.3l-0.3,0.4v-0.5v-1.6h-0.9v5.8h0.8
		l0-0.3l0.1-0.4l0.2,0.3c0.1,0.1,0.2,0.2,0.3,0.3c0.1,0.1,0.2,0.1,0.3,0.1c0.1,0,0.3-0.1,0.4-0.2c0.1-0.1,0.2-0.2,0.2-0.4
		c0-0.2,0.1-0.4,0.1-0.4v-2.3c0,0,0-0.2,0-0.7C-284.2-7.3-284.3-7.4-284.3-7.5z M-285.1-5c0,0.4,0,0.5,0,0.6c0,0.1-0.1,0.2-0.3,0.2
		c-0.1,0-0.2-0.1-0.3-0.2c0-0.1,0-0.2,0-0.6v-1.2c0-0.4,0-0.5,0-0.6c0-0.1,0.1-0.2,0.3-0.2c0.1,0,0.2,0.1,0.3,0.2c0,0.1,0,0.2,0,0.6
		L-285.1-5L-285.1-5L-285.1-5z M-282.7-5.4h0.1h1.3v-0.5c0-0.4,0-0.9-0.1-1.2c-0.1-0.2-0.2-0.4-0.4-0.5c-0.2-0.1-0.4-0.2-0.7-0.2
		c-0.2,0-0.4,0.1-0.6,0.2s-0.3,0.3-0.4,0.5c-0.1,0.2-0.1,0.5-0.1,1.1v1.3c0,0.2,0,0.4,0.1,0.6c0,0.2,0.1,0.3,0.2,0.4
		c0.1,0.1,0.2,0.2,0.4,0.3c0.2,0.1,0.4,0.1,0.6,0.1c0.2,0,0.4,0,0.6-0.1c0.1-0.1,0.3-0.2,0.4-0.3c0.1-0.2,0.2-0.3,0.2-0.4
		c0-0.1,0-0.4,0-0.6V-5h-0.8v0.5c0,0.3,0,0.4-0.1,0.5c0,0.1-0.2,0.2-0.3,0.2c-0.1,0-0.2-0.1-0.3-0.2c0-0.1,0-0.2,0-0.5v-0.8
		L-282.7-5.4L-282.7-5.4L-282.7-5.4z M-282.7-6v-0.5c0-0.4,0-0.3,0-0.4c0-0.1,0.1-0.2,0.3-0.2c0.1,0,0.2,0.1,0.3,0.2
		c0,0.1,0,0,0,0.3V-6v0.1h-0.1h-0.3h-0.1C-282.7-5.9-282.7-6-282.7-6z"/>
</g>
</svg>
